<svg width="37" height="37" viewBox="0 0 37 37" fill="none" xmlns="http://www.w3.org/2000/svg">
<path d="M24.6667 18.5H27.75V24.6667H24.6667V18.5Z" fill="black" stroke="black" stroke-width="1.2" stroke-linecap="round" stroke-linejoin="round"/>
<path d="M30.8333 10.7918V7.70848C30.8333 6.00802 29.4505 5.71338 27.75 5.71338H7.70834C5.15843 5.71338 3.08334 6.70023 3.08334 9.25014V27.7501C3.08334 31.1434 5.84909 31.2869 7.70834 31.2869H30.8333C32.5338 31.2869 33.9167 30.9923 33.9167 29.2918V13.8751C33.9167 12.1747 32.5338 10.7918 30.8333 10.7918ZM6.62011 7.70848H28.8382V10.7918H6.62011C6.22316 10.7741 5.84836 10.6039 5.57374 10.3167C5.29913 10.0295 5.14586 9.64749 5.14586 9.25014C5.14586 8.8528 5.29913 8.47077 5.57374 8.18359C5.84836 7.89642 6.22316 7.72623 6.62011 7.70848ZM31.9216 29.2918H6.63861C5.92636 29.2733 5.07844 28.9912 5.07844 27.7501V12.5017C5.56252 12.6759 6.0759 12.7869 6.62011 12.7869H31.9216V29.2918Z" fill="black" stroke="black" stroke-width="1.2" stroke-linecap="round" stroke-linejoin="round"/>
</svg>
