<svg width="34" height="34" viewBox="0 0 34 34" fill="none" xmlns="http://www.w3.org/2000/svg">
<path fill-rule="evenodd" clip-rule="evenodd" d="M7.4375 4.25H5.3125V14.875H7.4375V4.25ZM20.4 14.875H13.6L12.75 13.7062V11.5812L13.6 10.625H20.4L21.25 11.6875V13.8125L20.4 14.875ZM9.775 21.25H2.975L2.125 20.1875V18.0625L2.975 17H9.775L10.625 18.0625V20.1875L9.775 21.25ZM18.0625 4.25H15.9375V8.5H18.0625V4.25ZM15.9375 17H18.0625V29.75H15.9375V17ZM7.4375 23.375H5.3125V29.75H7.4375V23.375ZM24.225 23.375H31.0037L31.8538 22.3125V20.2938L31.0037 19.2313H24.225L23.375 20.2938V22.3125L24.225 23.375ZM28.6875 4.25H26.5625V17H28.6875V4.25ZM26.5625 25.5H28.6875V29.75H26.5625V25.5Z" fill="black"/>
</svg>
