<svg width="37" height="37" viewBox="0 0 37 37" fill="none" xmlns="http://www.w3.org/2000/svg">
<mask id="mask0_5766_1377" style="mask-type:luminance" maskUnits="userSpaceOnUse" x="3" y="1" width="32" height="34">
<path fill-rule="evenodd" clip-rule="evenodd" d="M3.08331 1.54199H34.6872V34.6955H3.08331V1.54199Z" fill="white"/>
</mask>
<g mask="url(#mask0_5766_1377)">
<path fill-rule="evenodd" clip-rule="evenodd" d="M21.1467 23.5738C23.0029 23.5738 24.5137 25.0739 24.5137 26.9177V31.6599C24.5137 32.0561 24.8313 32.3737 25.2383 32.3829H28.1767C30.4923 32.3829 32.3747 30.5237 32.3747 28.2389V14.7894C32.3639 14.0032 31.9893 13.2632 31.3464 12.7714L21.1822 4.66531C19.8178 3.5846 17.9092 3.5846 16.5402 4.66839L6.44538 12.7683C5.77784 13.2755 5.40322 14.0155 5.39551 14.8156V28.2389C5.39551 30.5237 7.27788 32.3829 9.59347 32.3829H12.5596C12.9774 32.3829 13.3166 32.0515 13.3166 31.6445C13.3166 31.5551 13.3274 31.4656 13.3459 31.3808V26.9177C13.3459 25.0847 14.8475 23.5862 16.6898 23.5738H21.1467ZM28.1767 34.6954H25.2105C23.5116 34.6553 22.2012 33.3218 22.2012 31.6599V26.9177C22.2012 26.3488 21.7279 25.8863 21.1467 25.8863H16.6975C16.1286 25.8894 15.6584 26.3535 15.6584 26.9177V31.6445C15.6584 31.7601 15.643 31.8711 15.6106 31.9759C15.4441 33.5022 14.1398 34.6954 12.5596 34.6954H9.59347C6.00292 34.6954 3.08301 31.7986 3.08301 28.2389V14.8048C3.09842 13.2724 3.80451 11.8695 5.02397 10.9461L15.0988 2.86001C17.3172 1.10251 20.4083 1.10251 22.6221 2.85693L32.7693 10.9507C33.9611 11.8587 34.6671 13.2586 34.6872 14.7725V28.2389C34.6872 31.7986 31.7673 34.6954 28.1767 34.6954Z" fill="black" stroke="black" stroke-width="1.2" stroke-linecap="round" stroke-linejoin="round"/>
</g>
</svg>
