<svg width="34" height="34" viewBox="0 0 34 34" fill="none" xmlns="http://www.w3.org/2000/svg">
<path fill-rule="evenodd" clip-rule="evenodd" d="M23.4842 31.6894H10.9836C6.10883 31.6894 2.8335 28.2682 2.8335 23.1767V11.3985C2.8335 6.30699 6.10883 2.88574 10.9836 2.88574H16.2805C16.867 2.88574 17.343 3.36174 17.343 3.94824C17.343 4.53474 16.867 5.01074 16.2805 5.01074H10.9836C7.32291 5.01074 4.9585 7.51824 4.9585 11.3985V23.1767C4.9585 27.0569 7.32291 29.5644 10.9836 29.5644H23.4842C27.1449 29.5644 29.5107 27.0569 29.5107 23.1767V17.4703C29.5107 16.8838 29.9867 16.4078 30.5732 16.4078C31.1597 16.4078 31.6357 16.8838 31.6357 17.4703V23.1767C31.6357 28.2682 28.359 31.6894 23.4842 31.6894Z" fill="black" stroke="black" stroke-width="1.2" stroke-linecap="round" stroke-linejoin="round"/>
<path fill-rule="evenodd" clip-rule="evenodd" d="M12.5626 21.857H16.78C17.3183 21.857 17.8227 21.6487 18.2037 21.2677L28.8415 10.6299C29.2778 10.1936 29.5187 9.61273 29.5187 8.99507C29.5187 8.37598 29.2778 7.79373 28.8415 7.3574L27.1174 5.63332C26.215 4.73373 24.7473 4.73373 23.8435 5.63332L13.2567 16.2201C12.8898 16.587 12.6816 17.0743 12.6688 17.5914L12.5626 21.857ZM16.78 23.982H11.4732C11.187 23.982 10.9122 23.8658 10.7124 23.6604C10.5127 23.4564 10.4036 23.1802 10.4107 22.8926L10.5438 17.539C10.5707 16.4737 11 15.4721 11.7537 14.717H11.7551L22.3418 4.13023C24.073 2.4019 26.8879 2.4019 28.6191 4.13023L30.3432 5.85432C31.1832 6.69298 31.6451 7.8079 31.6437 8.99507C31.6437 10.1822 31.1818 11.2957 30.3432 12.133L19.7054 22.7707C18.9248 23.5513 17.885 23.982 16.78 23.982Z" fill="black" stroke="black" stroke-width="1.2" stroke-linecap="round" stroke-linejoin="round"/>
<path fill-rule="evenodd" clip-rule="evenodd" d="M27.9523 14.0487C27.6803 14.0487 27.4083 13.9452 27.2014 13.737L20.7329 7.2685C20.3179 6.85341 20.3179 6.1805 20.7329 5.76541C21.148 5.35033 21.8195 5.35033 22.2346 5.76541L28.7031 12.2353C29.1182 12.6504 29.1182 13.3219 28.7031 13.737C28.4963 13.9452 28.2243 14.0487 27.9523 14.0487Z" fill="black" stroke="black" stroke-width="1.2" stroke-linecap="round" stroke-linejoin="round"/>
</svg>
